<?xml version="1.0" encoding="UTF-8"?><svg xmlns="http://www.w3.org/2000/svg" viewBox="0 0 261.76 226.69"><defs><style>.cls-1{stroke:#0e1c28;stroke-miterlimit:10;stroke-width:6px;}.cls-1,.cls-2{fill:#fff;}.cls-3{fill:#0e1c28;}.cls-3,.cls-4,.cls-2{stroke-width:0px;}.cls-4{fill:#fffce9;}</style></defs><g id="clock"><path class="cls-2" d="M130.6,49.69c35.25,0,63.82,28.58,63.82,63.82s-28.58,63.82-63.82,63.82-63.82-28.58-63.82-63.82,28.57-63.82,63.82-63.82M130.6,37.69c-41.81,0-75.82,34.01-75.82,75.82s34.01,75.82,75.82,75.82,75.82-34.01,75.82-75.82-34.01-75.82-75.82-75.82h0Z"/><path class="cls-2" d="M130.6,69.04c-24.57,0-44.47,19.92-44.47,44.48s19.91,44.47,44.47,44.47,44.47-19.92,44.47-44.47-19.91-44.48-44.47-44.48ZM138.65,115.57c-.91,3.6-4.17,6.26-8.05,6.26-4.59,0-8.32-3.72-8.32-8.31,0-2.28.92-4.34,2.4-5.85l5.92-34.4,5.79,33.69,29.31-12.15-27.05,20.76ZM136.52,107.67l-.13-.71-.45.19c.2.16.4.34.58.52Z"/><path class="cls-4" d="M136.52,107.67c-.19-.19-.38-.36-.58-.52l.45-.19.13.71Z"/><path class="cls-4" d="M136.52,107.67c-.19-.19-.38-.36-.58-.52l.45-.19.13.71Z"/></g><g id="hand_bottom"><path id="Arm" class="cls-1" d="M88.5,150.81l-13.65,45.91-2.91-.99.34-1.57s-6.99-1.47-14.92-5.09c-4.15-1.89-11.28-4.66-15.25-11.58-6.81-14.06-10.63-29.84-10.63-46.52,0-.93.01-1.86.03-2.78,7.7,4.51,33.13,23.32,52.91,24.27l.9-2.36,3.17.72Z"/><g id="Hand"><path class="cls-2" d="M141.89,218.67c-19.4,0-40.36-9.08-62.31-27l-1.55-1.26,10-33.58,1.41-.52c.24-.09,5.99-2.18,12.49-2.18s12.71,2.06,12.97,2.15l.23.08.21.11c.17.09,17.38,8.98,31.63,9.58,3.54.24,9.41,2.65,9.41,10.21s-7,10-10.7,10.29h-.19s-.19,0-.19,0c-.48-.02-11.87-.6-15.25-1.07-.72-.1-2.42-.35-4.63-.69,6.57,2.48,13.82,4.8,20.39,6,1.69.26,5.38.83,9.48.83,2.8,0,5.35-.27,7.56-.8,4.76-1.14,10.53-4.67,12.78-6.14,2.34-1.52,4.73-2.82,7.09-3.87,3.57-1.58,6.33-2.35,8.44-2.35,3,0,5.55,1.12,7.18,3.16,1.58,1.98,2.11,4.6,1.49,7.37l-.05.24-.09.22c-1.28,3.18-4.57,5.43-7.47,7.42-1.33.91-2.7,1.85-3.32,2.54-2.59,2.89-10.22,8-12.87,9.28-.17.08-.37.18-.6.3-1.59.82-4.51,2.32-9.19,3.6l-3.43,2.59c-.77.58-5.38,3.47-20.9,3.47Z"/><path class="cls-3" d="M101.93,157.14c6.04,0,12.02,1.99,12.02,1.99,0,0,17.78,9.29,32.89,9.92.51.03,6.53.54,6.53,7.21s-7.94,7.3-7.94,7.3c0,0-11.71-.59-14.99-1.05-3.29-.45-27.4-4.23-27.4-4.23,0,0,23.51,12.05,42.21,15.46,2.13.33,5.85.88,10.02.88,2.67,0,5.53-.23,8.26-.88,5.08-1.22,10.9-4.71,13.71-6.54,2.13-1.38,4.35-2.61,6.68-3.64,2.43-1.08,5.25-2.1,7.22-2.1,4.18,0,6.63,2.93,5.74,6.87-1.51,3.75-7.96,6.53-10.24,9.08-2.28,2.55-9.62,7.46-11.94,8.58-2.32,1.12-10.13,5.91-27.63,5.91s-29.68-5.06-29.68-5.06c0,0,10.4,6.84,30.8,6.84,9.51-.39,12.79-.89,12.79-.89,0,0-3.79,2.86-19.09,2.86s-35.32-5.84-60.42-26.32l9-30.22s5.41-1.99,11.45-1.99M101.93,151.14c-6.91,0-12.87,2.12-13.53,2.36l-2.82,1.04-.86,2.88-9,30.22-1.14,3.83,3.1,2.53c22.5,18.36,44.1,27.67,64.21,27.67,15.63,0,21.09-2.85,22.71-4.07l2.97-2.25c4.63-1.32,7.57-2.83,9.2-3.67.21-.11.39-.2.54-.27,2.87-1.39,10.85-6.67,13.8-9.98.38-.42,1.82-1.41,2.78-2.07,3.09-2.12,6.94-4.75,8.56-8.78l.18-.45.11-.47c.83-3.68.09-7.2-2.07-9.9-2.21-2.77-5.6-4.29-9.53-4.29-2.53,0-5.69.85-9.65,2.61-2.51,1.11-5.04,2.49-7.51,4.1-4.5,2.92-8.81,5.01-11.85,5.74-1.98.48-4.29.72-6.86.72-1.63,0-3.2-.1-4.6-.23,4.42-1.76,8.7-5.6,8.7-12.14,0-8.5-6.29-12.8-12.12-13.2h-.08s-.08,0-.08,0c-13.56-.57-30.2-9.16-30.37-9.25l-.42-.22-.45-.15c-.28-.09-6.98-2.3-13.92-2.3h0Z"/></g></g><g id="hand_top"><path id="Arm-2" class="cls-1" d="M233.65,95.26c-7.7-4.51-35.79-23.32-55.58-24.27l-.9,2.36-3.17-.72,13.65-45.91,2.91.99-.34,1.57s14.87,6.44,22.8,10.07c0,0,17.72,20.15,20.63,55.9Z"/><g id="Hand-2"><path class="cls-2" d="M160.58,70.48c-6.45,0-12.71-2.06-12.97-2.15l-.23-.08-.21-.11c-.17-.09-17.38-8.98-31.63-9.58-3.54-.24-9.41-2.66-9.41-10.21s7-10,10.7-10.29l.19-.02h.19c.48.03,11.87.61,15.25,1.08.72.1,2.42.35,4.63.69-6.57-2.48-13.82-4.81-20.39-6-1.69-.26-5.37-.84-9.48-.84-2.8,0-5.35.27-7.56.8-4.76,1.14-10.52,4.67-12.78,6.14-2.34,1.52-4.73,2.82-7.09,3.87-3.57,1.58-6.33,2.35-8.43,2.35-3,0-5.55-1.12-7.18-3.16-1.58-1.98-2.11-4.6-1.49-7.37l.05-.24.09-.22c1.28-3.18,4.57-5.43,7.47-7.42,1.33-.91,2.7-1.85,3.32-2.54,2.59-2.89,10.22-8,12.87-9.28.17-.08.37-.19.6-.31,1.59-.82,4.51-2.32,9.19-3.6l3.43-2.59c.77-.58,5.38-3.47,20.9-3.47,19.4,0,40.37,9.08,62.31,27l1.55,1.26-10,33.57-1.41.52c-.24.09-5.99,2.18-12.49,2.18Z"/><path class="cls-3" d="M120.61,8.95c15.3,0,35.32,5.84,60.42,26.32l-9,30.22s-5.41,1.99-11.45,1.99-12.02-1.99-12.02-1.99c0,0-17.78-9.29-32.89-9.92-.51-.03-6.53-.54-6.53-7.21s7.94-7.3,7.94-7.3c0,0,11.71.59,14.99,1.05,3.29.45,27.4,4.23,27.4,4.23,0,0-23.51-12.05-42.21-15.46-2.13-.33-5.85-.88-10.02-.88-2.67,0-5.53.23-8.26.88-5.08,1.22-10.9,4.71-13.71,6.54-2.13,1.38-4.35,2.61-6.68,3.64-2.43,1.08-5.25,2.1-7.22,2.1-4.18,0-6.63-2.93-5.74-6.87,1.51-3.75,7.96-6.53,10.24-9.08,2.28-2.55,9.62-7.46,11.94-8.58,2.32-1.12,10.13-5.91,27.63-5.91s29.68,5.06,29.68,5.06c0,0-10.4-6.84-30.8-6.84-9.51.39-12.79.89-12.79.89,0,0,3.79-2.86,19.09-2.86M120.61,2.95c-15.63,0-21.09,2.85-22.71,4.07l-2.97,2.25c-4.63,1.32-7.57,2.83-9.2,3.67-.21.11-.39.2-.54.27-2.87,1.39-10.85,6.67-13.8,9.98-.38.42-1.82,1.41-2.78,2.07-3.09,2.12-6.94,4.75-8.56,8.78l-.18.45-.11.47c-.83,3.68-.09,7.2,2.07,9.9,2.21,2.77,5.6,4.29,9.53,4.29,2.53,0,5.69-.85,9.65-2.61,2.51-1.11,5.04-2.49,7.51-4.1,4.5-2.92,8.81-5.01,11.85-5.74,1.98-.48,4.29-.72,6.86-.72,1.63,0,3.2.1,4.6.23-4.42,1.76-8.7,5.6-8.7,12.14,0,8.5,6.29,12.8,12.12,13.2h.08s.08,0,.08,0c13.62.57,30.2,9.16,30.36,9.24l.43.22.45.15c.28.09,6.98,2.3,13.92,2.3s12.87-2.12,13.53-2.36l2.82-1.04.86-2.88,9-30.22,1.14-3.83-3.1-2.53C162.32,12.26,140.72,2.95,120.61,2.95h0Z"/></g></g></svg>